<?xml version="1.0" encoding="UTF-8" standalone="no"?>
<svg
   xmlns:dc="http://purl.org/dc/elements/1.1/"
   xmlns:cc="http://creativecommons.org/ns#"
   xmlns:rdf="http://www.w3.org/1999/02/22-rdf-syntax-ns#"
   xmlns:svg="http://www.w3.org/2000/svg"
   xmlns="http://www.w3.org/2000/svg"
   xmlns:sodipodi="http://sodipodi.sourceforge.net/DTD/sodipodi-0.dtd"
   xmlns:inkscape="http://www.inkscape.org/namespaces/inkscape"
   inkscape:version="1.0 (4035a4f, 2020-05-01)"
   sodipodi:docname="logo.svg"
   xml:space="preserve"
   style="enable-background:new 0 0 500 500;"
   viewBox="0 0 500 500"
   y="0px"
   x="0px"
   id="Layer_1"
   version="1.1"><metadata
   id="metadata1206"><rdf:RDF><cc:Work
       rdf:about=""><dc:format>image/svg+xml</dc:format><dc:type
         rdf:resource="http://purl.org/dc/dcmitype/StillImage" /><dc:title></dc:title></cc:Work></rdf:RDF></metadata><defs
   id="defs1204" /><sodipodi:namedview
   inkscape:current-layer="g2829"
   inkscape:window-maximized="1"
   inkscape:window-y="0"
   inkscape:window-x="0"
   inkscape:cy="250"
   inkscape:cx="242.13899"
   inkscape:zoom="0.7919596"
   showgrid="false"
   id="namedview1202"
   inkscape:window-height="719"
   inkscape:window-width="1362"
   inkscape:pageshadow="2"
   inkscape:pageopacity="0"
   guidetolerance="10"
   gridtolerance="10"
   objecttolerance="10"
   borderopacity="1"
   bordercolor="#666666"
   pagecolor="#ffffff" />

<g
   transform="matrix(1.6915379,0,0,1.6915379,21.321219,23.074018)"
   id="g2188"><g
     id="layer1"
     inkscape:label="Layer 1"
     style="display:inline;fill:#ff0000"><g
       style="fill:#ff0000"
       transform="matrix(0.26458333,0,0,0.26458333,86.390232,38.671175)"
       id="g231"><g
         style="fill:#ff0000"
         transform="matrix(23.961309,0,0,23.961309,-680.73085,-361.21096)"
         id="g2829"><rect
           ry="4.8628764"
           rx="4.7287874"
           y="6.8233423"
           x="12.794669"
           height="46.624615"
           width="46.624615"
           id="rect2196"
           style="font-variation-settings:normal;opacity:1;vector-effect:none;fill:#ffffff;fill-opacity:1;fill-rule:evenodd;stroke-width:0.279113;stroke-linecap:square;stroke-linejoin:miter;stroke-miterlimit:4;stroke-dasharray:none;stroke-dashoffset:0;stroke-opacity:1;paint-order:stroke markers fill;stop-color:#000000;stop-opacity:1" /><path
           d="m 35.447791,10.548529 -7.752305,8.627971 -1.245055,6.979947 -3.626219,1.600087 -1.542156,5.041488 h -5.559041 l 0.750057,1.21737 h 4.883323 l 0.819785,2.678266 h 3.940492 v 1.217369 h -3.568028 l 0.275568,0.902326 4.702601,1.600088 0.146883,0.824908 h 3.568031 v 1.217373 h -3.350652 l 0.880792,5.760781 6.747958,1.506267 7.595425,-0.693916 -0.146629,-3.514199 h 5.817177 l 1.044338,-1.217371 h -6.48546 l 1.139184,-1.986652 7.317805,-2.439098 v -1.554972 h -6.382923 v -1.217371 h 6.382923 v -3.083799 h 4.189916 l 0.499357,-1.291453 -4.689273,0.07408 v -6.09941 l -6.241679,-2.439866 -1.859765,-3.242475 1.045622,-4.459588 z m 16.353874,26.550662 v 1.217371 h 2.71441 l 0.882332,-1.217371 z m -23.91059,5.356531 -0.217379,-1.217373 H 20.0511 l 1.044339,1.217373 z M 22.548644,37.911027 22.17618,36.693658 h -4.512396 l 1.044339,1.217369 z m 13.140621,-25.797784 7.668741,5.03072 -0.952571,4.061745 2.329642,4.061487 5.84922,2.308621 v 5.222206 5.13e-4 H 22.555306 l 1.250442,-4.089431 3.716963,-1.630848 1.31119,-7.350877 z m -0.11587,5.060709 -0.8608,0.860799 4.57802,4.578018 0.860797,-0.860797 z m -0.132531,2.58778 -0.860797,0.860797 4.578274,4.578017 0.860799,-0.860796 z m -4.120448,3.837187 -0.860796,0.8608 4.578273,4.578017 0.860799,-0.860797 z m -0.132529,2.588035 -0.860797,0.86105 4.578017,4.578021 0.860799,-0.860798 z m -0.67828,8.943015 h 6.382923 v 1.217372 h -6.382919 z m 4.842052,4.542388 h 6.382923 v 1.217369 h -6.382923 z m 3.93152,4.624927 h 3.940496 l -0.372721,1.217371 h -3.567775 z m -7.785374,0.146628 h 4.558024 v 1.217371 h -4.558024 z"
           style="fill:#111111;fill-opacity:1;stroke:none;stroke-width:0.52221px;stroke-linecap:butt;stroke-linejoin:miter;stroke-opacity:1"
           id="path6155" /></g></g></g></g></svg>
