<?xml version="1.0" encoding="UTF-8"?>
<svg version="1.1" xmlns="http://www.w3.org/2000/svg" width="192" height="192">
<path d="M0 0 C17.74806183 15.26312823 29.24688264 36.65737626 32.28125 59.86328125 C34.21447333 86.57866829 29.21314043 112.23858244 11.59375 133.26171875 C-4.63562213 151.5197624 -26.30687489 166.48018545 -51.58691406 168.0402832 C-83.18089665 168.6554003 -107.550755 162.81687391 -131.09375 140.57421875 C-148.73169364 122.35884243 -158.18966712 98.45833347 -159.03125 73.17578125 C-158.42734865 46.49755114 -148.16984362 22.80783001 -129.78125 3.55078125 C-93.7444394 -30.69136747 -37.9539705 -31.57251753 0 0 Z " fill="#F5F5F5" transform="translate(158.71875,23.13671875)"/>
<path d="M0 0 C2.88440402 0.60411756 5.04993447 1.47026131 7.5390625 3.0390625 C8.197854 3.45043457 8.85664551 3.86180664 9.53540039 4.28564453 C12.37024483 6.10267416 15.19189192 7.93995273 18.01611328 9.7734375 C20.17689654 11.15027328 20.17689654 11.15027328 23.30859375 12.65625 C26.24577155 14.22274482 28.07327659 15.27206488 30 18 C30.192294 21.47608393 29.96726821 24.57622191 29.55761719 28.01391602 C28.95710907 33.15711249 28.75451835 36.70972191 31.66015625 41.09765625 C36.95859491 45.40540187 43.88544279 47.31819193 50.31347656 49.38671875 C52 50 52 50 53 51 C53.08651611 52.41570123 53.10704904 53.835595 53.09765625 55.25390625 C53.09282227 56.53491211 53.09282227 56.53491211 53.08789062 57.84179688 C53.07532227 59.18854492 53.07532227 59.18854492 53.0625 60.5625 C53.05798828 61.46419922 53.05347656 62.36589844 53.04882812 63.29492188 C53.03700244 65.52997589 53.01906638 67.76499602 53 70 C57.95 70 62.9 70 68 70 C67.67 71.32 67.34 72.64 67 74 C62.38 74 57.76 74 53 74 C53 77.3 53 80.6 53 84 C46.4 84 39.8 84 33 84 C33 85.32 33 86.64 33 88 C39.6 88 46.2 88 53 88 C53 89.65 53 91.3 53 93 C52.31897217 93.21092285 51.63794434 93.4218457 50.9362793 93.63916016 C47.84541105 94.61100528 44.76690815 95.61746015 41.6875 96.625 C40.61564453 96.95628906 39.54378906 97.28757812 38.43945312 97.62890625 C37.41142578 97.97050781 36.38339844 98.31210938 35.32421875 98.6640625 C34.37635498 98.96779785 33.42849121 99.2715332 32.4519043 99.58447266 C29.24276377 101.13694656 29.24276377 101.13694656 27 107 C33.27 107 39.54 107 46 107 C45.01 108.98 45.01 108.98 44 111 C37.73 111 31.46 111 25 111 C25 114.63 25 118.26 25 122 C9.14923907 124.2789284 -4.54827266 124.78542302 -20 120 C-21.4999411 118.5000589 -21.31607651 117.05340395 -21.53515625 114.96484375 C-21.66567383 113.75151367 -21.66567383 113.75151367 -21.79882812 112.51367188 C-21.9293457 111.2384668 -21.9293457 111.2384668 -22.0625 109.9375 C-22.15337891 109.08349609 -22.24425781 108.22949219 -22.33789062 107.34960938 C-22.56250722 105.23348465 -22.78175227 103.11679106 -23 101 C-23.65073486 101.02094727 -24.30146973 101.04189453 -24.97192383 101.06347656 C-27.91862555 101.14659338 -30.8650809 101.19864484 -33.8125 101.25 C-34.83666016 101.28351563 -35.86082031 101.31703125 -36.91601562 101.3515625 C-37.89892578 101.36445313 -38.88183594 101.37734375 -39.89453125 101.390625 C-40.80050049 101.41157227 -41.70646973 101.43251953 -42.63989258 101.45410156 C-45 101 -45 101 -48 97 C-40.08 97 -32.16 97 -24 97 C-24.90055299 94.63385967 -24.90055299 94.63385967 -28.125 93.81640625 C-30.07297295 93.17446062 -32.02644828 92.55424793 -33.984375 91.94335938 C-35.68622643 91.37900575 -37.34763875 90.69605718 -39 90 C-39.33 89.01 -39.66 88.02 -40 87 C-36.37 87 -32.74 87 -29 87 C-29 85.68 -29 84.36 -29 83 C-32.96 83 -36.92 83 -41 83 C-41 83.99 -41 84.98 -41 86 C-42.95766281 86.08082094 -44.91626728 86.13910778 -46.875 86.1875 C-48.51082031 86.23970703 -48.51082031 86.23970703 -50.1796875 86.29296875 C-51.11039063 86.19628906 -52.04109375 86.09960938 -53 86 C-53.66 85.01 -54.32 84.02 -55 83 C-50.71 83 -46.42 83 -42 83 C-42.66 80.36 -43.32 77.72 -44 75 C-45.13179687 74.97421875 -46.26359375 74.9484375 -47.4296875 74.921875 C-48.91149743 74.86560374 -50.39326677 74.80825618 -51.875 74.75 C-52.99455078 74.72873047 -52.99455078 74.72873047 -54.13671875 74.70703125 C-56.3046875 74.609375 -56.3046875 74.609375 -60 74 C-60.66 72.68 -61.32 71.36 -62 70 C-56.06 69.67 -50.12 69.34 -44 69 C-43.566875 66.628125 -43.13375 64.25625 -42.6875 61.8125 C-42.03451294 58.90376731 -41.23710684 56.78349038 -40 54 C-37.22125087 52.24040287 -34.61309632 51.43267592 -31.5 50.41015625 C-28.75100888 49.17918167 -28.75100888 49.17918167 -27.6875 46.18359375 C-26.93195719 42.78758624 -26.39475086 39.45608407 -26 36 C-24.99941984 27.28763127 -22.48636514 23.82352491 -16 18 C-14.83185318 16.72847736 -13.68532762 15.43671451 -12.5625 14.125 C-8.45131483 9.34765056 -4.22568411 4.67604047 0 0 Z " fill="#0A0A0A" transform="translate(92,37)"/>
<path d="M0 0 C0.83015625 0.26683594 1.6603125 0.53367187 2.515625 0.80859375 C19.51296158 6.82180245 32.97420997 20.09401251 41 36 C48.95091179 54.21621877 49.37315044 73.56952643 42.20263672 92.05566406 C34.3148721 111.04522304 20.57080874 122.77637954 2 131 C-1.29908012 132.18749612 -4.59477239 133.17101201 -8 134 C-8.61053223 134.17200928 -9.22106445 134.34401855 -9.85009766 134.52124023 C-13.76787588 135.39368665 -17.7523451 135.18458626 -21.75 135.1875 C-22.61882812 135.19974609 -23.48765625 135.21199219 -24.3828125 135.22460938 C-29.96052704 135.2371718 -34.64643246 134.56662292 -40 133 C-40.96164063 132.75121094 -41.92328125 132.50242188 -42.9140625 132.24609375 C-60.98950338 126.85471585 -74.88445392 114.12218847 -84.04541016 97.84960938 C-91.5197467 83.36736547 -93.95189509 64.49120505 -90.09375 48.54296875 C-88.92335474 44.90048864 -87.59465712 41.47618377 -86 38 C-85.55398437 37.0203125 -85.10796875 36.040625 -84.6484375 35.03125 C-75.68459425 17.20371818 -60.32476173 4.95108374 -41.5625 -1.4375 C-28.38257329 -4.8616243 -12.82370252 -4.59980634 0 0 Z M-27.60644531 8.34179688 C-28.45867676 9.27088867 -28.45867676 9.27088867 -29.328125 10.21875 C-29.96363281 10.90453125 -30.59914062 11.5903125 -31.25390625 12.296875 C-31.91261719 13.02390625 -32.57132813 13.7509375 -33.25 14.5 C-33.89324219 15.19609375 -34.53648438 15.8921875 -35.19921875 16.609375 C-39.05258204 20.79612787 -42.82076772 25.05246719 -46.54589844 29.35351562 C-47.65417683 30.60842319 -48.81613472 31.81613472 -50 33 C-50.59773267 35.17012955 -50.59773267 35.17012955 -50.96484375 37.68359375 C-51.12533203 38.61107422 -51.28582031 39.53855469 -51.45117188 40.49414062 C-51.77465897 42.45195207 -52.0949867 44.41028822 -52.41210938 46.36914062 C-52.57388672 47.29791016 -52.73566406 48.22667969 -52.90234375 49.18359375 C-53.04148193 50.03493896 -53.18062012 50.88628418 -53.32397461 51.76342773 C-54.09291064 54.30738692 -54.93342532 55.36280573 -57 57 C-58.47109951 57.44430998 -59.95133319 57.85903537 -61.4375 58.25 C-63.93622234 59.11972221 -63.93622234 59.11972221 -66 61 C-68.08149732 66.06607813 -68.91407128 70.5231421 -70 76 C-75.94 76.33 -81.88 76.66 -88 77 C-87.34 78.32 -86.68 79.64 -86 81 C-83.17482275 81.46588547 -80.70920439 81.69615501 -77.875 81.75 C-76.74384766 81.79447266 -76.74384766 81.79447266 -75.58984375 81.83984375 C-73.72714047 81.91057932 -71.86356245 81.95754983 -70 82 C-69.34 84.64 -68.68 87.28 -68 90 C-72.29 90 -76.58 90 -81 90 C-80.34 90.99 -79.68 91.98 -79 93 C-76.10391601 93.36498034 -76.10391601 93.36498034 -72.875 93.1875 C-71.77929688 93.16042969 -70.68359375 93.13335937 -69.5546875 93.10546875 C-68.71164063 93.07066406 -67.86859375 93.03585938 -67 93 C-67 92.01 -67 91.02 -67 90 C-63.04 90 -59.08 90 -55 90 C-55 91.32 -55 92.64 -55 94 C-58.63 94 -62.26 94 -66 94 C-65.67 94.99 -65.34 95.98 -65 97 C-62.65583681 97.98747874 -60.4173534 98.8082667 -58 99.5625 C-55.63107062 100.31561436 -53.32781821 101.11833885 -51 102 C-50.67 102.66 -50.34 103.32 -50 104 C-57.92 104 -65.84 104 -74 104 C-71.57798395 108.16300156 -71.57798395 108.16300156 -68.63989258 108.45410156 C-67.73392334 108.4331543 -66.8279541 108.41220703 -65.89453125 108.390625 C-64.91162109 108.37773437 -63.92871094 108.36484375 -62.91601562 108.3515625 C-61.89185547 108.31804687 -60.86769531 108.28453125 -59.8125 108.25 C-58.77673828 108.23195313 -57.74097656 108.21390625 -56.67382812 108.1953125 C-54.11549164 108.14815422 -51.55762993 108.07641052 -49 108 C-48.34 113.94 -47.68 119.88 -47 126 C-31.38232381 132.24707048 -17.26956474 131.33914153 -1 129 C-1 125.37 -1 121.74 -1 118 C5.27 118 11.54 118 18 118 C18.99 116.02 18.99 116.02 20 114 C13.73 114 7.46 114 1 114 C4 108 4 108 6.4519043 106.58447266 C7.39976807 106.2807373 8.34763184 105.97700195 9.32421875 105.6640625 C10.35224609 105.32246094 11.38027344 104.98085937 12.43945312 104.62890625 C13.51130859 104.29761719 14.58316406 103.96632813 15.6875 103.625 C16.77095703 103.27050781 17.85441406 102.91601562 18.97070312 102.55078125 C21.64130685 101.68018796 24.31686513 100.83100048 27 100 C27 98.35 27 96.7 27 95 C20.4 95 13.8 95 7 95 C7 93.68 7 92.36 7 91 C13.6 91 20.2 91 27 91 C27 87.7 27 84.4 27 81 C31.62 81 36.24 81 41 81 C41.33 79.68 41.66 78.36 42 77 C37.05 77 32.1 77 27 77 C27 70.73 27 64.46 27 58 C25.35 57.236875 23.7 56.47375 22 55.6875 C20.99710937 55.22214844 19.99421875 54.75679687 18.9609375 54.27734375 C16.50631191 53.21842215 14.18892118 52.46220033 11.625 51.75 C7.53955495 50.19163436 5.68601642 47.78297257 3.7265625 43.93359375 C2.78053994 40.11390051 3.31396515 36.71455434 3.8125 32.875 C4.48839684 27.57745242 4.48839684 27.57745242 2.45703125 22.80078125 C-0.25540988 20.92433538 -3.06158929 19.50147692 -6 18 C-9.01435736 16.07367342 -11.96940945 14.05919826 -14.9375 12.0625 C-16.39910818 11.08625188 -17.86624701 10.11821236 -19.33984375 9.16015625 C-19.97269287 8.74386963 -20.60554199 8.32758301 -21.25756836 7.89868164 C-23.82041951 6.57685803 -25.36115424 6.46639874 -27.60644531 8.34179688 Z " fill="#FAFAFA" transform="translate(118,30)"/>
<path d="M0 0 C3.57422202 0.4898857 6.03378 2.1631072 8.984375 4.16015625 C9.91894531 4.78857422 10.85351562 5.41699219 11.81640625 6.06445312 C13.26853516 7.05348633 13.26853516 7.05348633 14.75 8.0625 C15.73355469 8.72572266 16.71710938 9.38894531 17.73046875 10.07226562 C20.15718572 11.70971057 22.58014787 13.35243436 25 15 C24.77441406 15.87140625 24.54882812 16.7428125 24.31640625 17.640625 C22.95458042 24.16045436 22.34631322 29.29538506 25.25 35.4375 C30.43764614 43.29788877 39.39787979 45.41481255 48 48 C48 53.61 48 59.22 48 65 C18.63 65 -10.74 65 -41 65 C-38.5215311 53.84688995 -38.5215311 53.84688995 -36 51 C-28.84210526 47 -28.84210526 47 -25 47 C-24.96261719 46.35675781 -24.92523438 45.71351562 -24.88671875 45.05078125 C-24.66636153 42.02194968 -24.35001636 39.01663588 -24 36 C-23.88527344 34.94296875 -23.77054688 33.8859375 -23.65234375 32.796875 C-22.16633986 23.68271779 -17.84116745 18.62381479 -11.453125 12.4375 C-9.15117316 10.16030033 -7.02207877 7.73484528 -4.875 5.3125 C-1.09230769 1.09230769 -1.09230769 1.09230769 0 0 Z " fill="#FAFAFA" transform="translate(93,42)"/>
<path d="M0 0 C17.74806183 15.26312823 29.24688264 36.65737626 32.28125 59.86328125 C34.21447333 86.57866829 29.21314043 112.23858244 11.59375 133.26171875 C-4.63562213 151.5197624 -26.30687489 166.48018545 -51.58691406 168.0402832 C-83.18089665 168.6554003 -107.550755 162.81687391 -131.09375 140.57421875 C-148.73169364 122.35884243 -158.18966712 98.45833347 -159.03125 73.17578125 C-158.42734865 46.49755114 -148.16984362 22.80783001 -129.78125 3.55078125 C-93.7444394 -30.69136747 -37.9539705 -31.57251753 0 0 Z M-133.3671875 14.91015625 C-149.02952607 34.57913957 -156.18289162 59.06483767 -153.484375 84.03173828 C-150.89878433 101.65032732 -143.31634471 118.36400242 -131.71875 131.86328125 C-131.21214844 132.51296875 -130.70554688 133.16265625 -130.18359375 133.83203125 C-117.06129092 150.08176251 -96.91305738 159.28612087 -76.71875 162.86328125 C-48.31013264 164.61804844 -24.43897217 159.50673795 -2.65625 140.55078125 C-0.99546878 139.00417874 0.65062325 137.44164433 2.28125 135.86328125 C3.044375 135.1259375 3.8075 134.38859375 4.59375 133.62890625 C14.77703668 123.09203323 21.14843805 109.80529747 25.28125 95.86328125 C25.64605469 94.69796875 26.01085937 93.53265625 26.38671875 92.33203125 C30.12136617 76.91487658 28.64637093 57.73688381 23.28125 42.86328125 C22.77271484 41.331875 22.77271484 41.331875 22.25390625 39.76953125 C13.49424364 16.07791708 -5.41230628 -0.5717987 -27.71875 -11.13671875 C-65.1133068 -27.79614664 -106.95606396 -15.10629527 -133.3671875 14.91015625 Z " fill="#070707" transform="translate(158.71875,23.13671875)"/>
<path d="M0 0 C1.12148437 0.4021875 2.24296875 0.804375 3.3984375 1.21875 C23.35345366 9.01029644 37.21259081 23.71138707 45.875 43.0625 C52.60193798 60.50270957 52.2703386 80.85228219 45 98 C35.65607051 118.45685535 20.53252216 132.13919591 -0.375 139.9375 C-16.97087106 145.77972191 -37.32522065 144.6649732 -53.13989258 137.28320312 C-60.03009009 133.90945375 -66.28777897 130.17094202 -72 125 C-72.66 124.43152344 -73.32 123.86304688 -74 123.27734375 C-85.39985692 112.790366 -94.31347153 96.51235526 -96 81 C-96.1608326 77.06147141 -96.18508932 73.12896226 -96.1875 69.1875 C-96.19974609 68.14529297 -96.21199219 67.10308594 -96.22460938 66.02929688 C-96.26054687 46.94648793 -88.11934377 30.91866906 -74.9375 17.3125 C-64.95286548 7.43613966 -53.65822577 1.31108503 -40 -2 C-39.3918042 -2.1743457 -38.7836084 -2.34869141 -38.15698242 -2.52832031 C-26.53443101 -5.06989013 -11.06211615 -4.20806724 0 0 Z M-75.22265625 23.34375 C-89.55450689 40.35419315 -93.56164664 58.31046335 -92 80 C-91.42352432 84.23044464 -90.47623533 88.00161361 -89 92 C-88.67128906 92.97582031 -88.34257813 93.95164062 -88.00390625 94.95703125 C-81.78283613 111.72593652 -68.72785376 124.90685552 -53 133 C-37.40758828 139.84735257 -18.21551124 142.30884734 -2 136 C-1.030625 135.64808594 -0.06125 135.29617187 0.9375 134.93359375 C19.27610191 127.84609837 31.60432369 116.01752009 40.27734375 98.40625 C44.40358111 88.81469448 46.25686571 79.08683213 46.3125 68.6875 C46.31797852 67.94693359 46.32345703 67.20636719 46.32910156 66.44335938 C46.26272731 61.33025292 45.39295133 56.92075198 44 52 C43.75121094 51.03835937 43.50242188 50.07671875 43.24609375 49.0859375 C38.05799638 31.69202649 26.00927525 17.78574528 10.4140625 8.72265625 C-18.87860916 -6.05774215 -52.57285487 -0.54004758 -75.22265625 23.34375 Z " fill="#141414" transform="translate(119,26)"/>
<path d="M0 0 C0.99 0.33 1.98 0.66 3 1 C6.42871138 1.16190138 9.85105636 1.29651789 13.28320312 1.34179688 C15.41015625 1.42578125 15.41015625 1.42578125 19 2 C21.57493155 4.97831508 21 6.87901972 21 11 C15.06 11.495 15.06 11.495 9 12 C10.81115956 13.81115956 13.61278227 13.38199448 16.0625 13.5625 C17.16722656 13.64628906 18.27195312 13.73007813 19.41015625 13.81640625 C20.69212891 13.90728516 20.69212891 13.90728516 22 14 C22 13.01 22 12.02 22 11 C25.96 11 29.92 11 34 11 C34 12.32 34 13.64 34 15 C30.7 15.33 27.4 15.66 24 16 C24 16.66 24 17.32 24 18 C25.12148438 18.29003906 25.12148438 18.29003906 26.265625 18.5859375 C27.25046875 18.84632812 28.2353125 19.10671875 29.25 19.375 C30.71179687 19.75785156 30.71179687 19.75785156 32.203125 20.1484375 C34.65837303 20.89598509 36.75617405 21.77123817 39 23 C39 23.66 39 24.32 39 25 C31.41 25.33 23.82 25.66 16 26 C18.52128356 28.52128356 19.51239013 28.29353069 23.0078125 28.4140625 C23.99394531 28.45273438 24.98007812 28.49140625 25.99609375 28.53125 C27.02863281 28.5621875 28.06117187 28.593125 29.125 28.625 C30.16527344 28.66367188 31.20554688 28.70234375 32.27734375 28.7421875 C34.85138311 28.83664766 37.42541155 28.92221214 40 29 C41.39523639 35.0129606 42.41443993 40.8516193 43 47 C52.86455616 49.83653476 61.65331203 51.63104081 72 51 C73.45442027 50.92044828 74.90884776 50.84102851 76.36328125 50.76171875 C80.24472688 50.5394501 84.12222433 50.27876179 88 50 C88 50.99 88 51.98 88 53 C80.97991345 55.70498748 74.25629004 56.30153309 66.8125 56.3125 C65.96977539 56.31765625 65.12705078 56.3228125 64.25878906 56.328125 C58.84278512 56.26863182 54.20382083 55.50078845 49 54 C48.03835937 53.75121094 47.07671875 53.50242188 46.0859375 53.24609375 C28.01755216 47.85682031 14.1202656 35.13055403 4.96337891 18.86279297 C2.36719929 13.84281058 0.30513641 8.49807464 -1 3 C-0.67 2.01 -0.34 1.02 0 0 Z " fill="#EFEFEF" transform="translate(29,109)"/>
<path d="M0 0 C11.03913945 -0.16207546 21.98440762 0.34235269 33 1 C32.34 2.32 31.68 3.64 31 5 C20.77 5 10.54 5 0 5 C0 3.35 0 1.7 0 0 Z " fill="#191919" transform="translate(105,143)"/>
<path d="M0 0 C11.88 0 23.76 0 36 0 C36 1.32 36 2.64 36 4 C31.3552879 4.0988803 26.71118827 4.1714715 22.06567383 4.21972656 C20.48548715 4.23984186 18.90537491 4.26713804 17.32543945 4.30175781 C15.05401252 4.35028343 12.78356942 4.37296809 10.51171875 4.390625 C9.80536789 4.41127014 9.09901703 4.43191528 8.3712616 4.45318604 C6.36987305 4.45410156 6.36987305 4.45410156 3 4 C2.01 2.68 1.02 1.36 0 0 Z " fill="#191919" transform="translate(44,134)"/>
<path d="M0 0 C1.65 0 3.3 0 5 0 C5.12117188 1.14597656 5.24234375 2.29195313 5.3671875 3.47265625 C5.53614266 5.00263906 5.70543127 6.53258507 5.875 8.0625 C5.95363281 8.81466797 6.03226563 9.56683594 6.11328125 10.34179688 C6.5209891 13.96412428 7.0332876 17.38190114 8.09375 20.875 C9.03521969 24.12144719 8.96728883 25.80794687 8 29 C7.01 29 6.02 29 5 29 C1.7301967 19.12975654 0.2899066 10.34966574 0 0 Z " fill="#202020" transform="translate(11,95)"/>
<path d="M0 0 C10.23 0 20.46 0 31 0 C30.34 1.32 29.68 2.64 29 4 C19.43 4 9.86 4 0 4 C0 2.68 0 1.36 0 0 Z " fill="#E9E9E9" transform="translate(125,121)"/>
<path d="M0 0 C1.32 0.33 2.64 0.66 4 1 C2.30897085 4.60986533 0.20056635 7.88961266 -1.9375 11.25 C-4.93431048 16.02431724 -7.31003285 20.61322972 -9 26 C-10.32 25.67 -11.64 25.34 -13 25 C-11.79568227 15.33712124 -6.00382961 7.43027139 0 0 Z " fill="#181818" transform="translate(30,42)"/>
<path d="M0 0 C9.86140414 1.02374746 18.13610193 4.84052964 27 9 C26.67 10.32 26.34 11.64 26 13 C22.21776999 12.39565804 19.23340279 11.26537185 15.8125 9.5625 C10.61990989 7.12141824 5.66086971 5.82272944 0 5 C0 3.35 0 1.7 0 0 Z " fill="#191919" transform="translate(110,12)"/>
<path d="M0 0 C0 1.32 0 2.64 0 4 C-0.87398437 4.12955078 -0.87398437 4.12955078 -1.765625 4.26171875 C-8.02410965 5.33432068 -13.45266649 7.27576583 -19.23828125 9.87890625 C-21.84250668 10.93606707 -24.23322047 11.55146926 -27 12 C-27 10.68 -27 9.36 -27 8 C-6.38367609 -2.12789203 -6.38367609 -2.12789203 0 0 Z " fill="#191919" transform="translate(82,13)"/>
<path d="M0 0 C6.45672576 5.51511992 6.45672576 5.51511992 9.03515625 7.81640625 C12.86203241 11.23036321 16.64941962 14.28088726 21 17 C20.67 18.32 20.34 19.64 20 21 C11.75381807 18.10943445 3.31339881 10.94964415 -2 4 C-2 3.01 -2 2.02 -2 1 C-1.34 0.67 -0.68 0.34 0 0 Z " fill="#151515" transform="translate(34,147)"/>
<path d="M0 0 C4.07357621 1.35785874 5.28082069 4.07374088 7.4375 7.5625 C8.03582642 8.51443237 8.03582642 8.51443237 8.64624023 9.4855957 C16 21.30925829 16 21.30925829 16 26 C13.71875 25.9140625 13.71875 25.9140625 11 25 C9.58002294 22.75571422 8.5379661 20.7848277 7.5 18.375 C5.62480282 14.28694624 3.80258732 10.42494393 1 6.875 C-1 4 -1 4 -0.625 1.8203125 C-0.41875 1.21960937 -0.2125 0.61890625 0 0 Z " fill="#161616" transform="translate(159,41)"/>
<path d="M0 0 C0.99 0.99 1.98 1.98 3 3 C-2.53037732 10.14664956 -10.24735264 18.08245088 -19 21 C-19.66 19.68 -20.32 18.36 -21 17 C-20.154375 16.443125 -19.30875 15.88625 -18.4375 15.3125 C-11.62012656 10.75116343 -5.52902047 6.13036409 0 0 Z " fill="#151515" transform="translate(157,147)"/>
<path d="M0 0 C1.32 0 2.64 0 4 0 C4.70861513 10.21586809 2.59610959 19.21822996 0 29 C-1.32 28.67 -2.64 28.34 -4 28 C-3.63503808 23.76452088 -3.23253196 19.7702621 -2 15.6875 C-0.59688225 10.51350331 -0.33296054 5.33613076 0 0 Z " fill="#171717" transform="translate(176,95)"/>
<path d="M0 0 C0 1.32 0 2.64 0 4 C-3.1184325 5.0394775 -5.27475586 5.11494838 -8.54296875 5.09765625 C-9.61611328 5.09443359 -10.68925781 5.09121094 -11.79492188 5.08789062 C-12.91447266 5.07951172 -14.03402344 5.07113281 -15.1875 5.0625 C-16.31865234 5.05798828 -17.44980469 5.05347656 -18.61523438 5.04882812 C-21.41020927 5.03703498 -24.2050782 5.0205765 -27 5 C-27.33 3.68 -27.66 2.36 -28 1 C-23.89587259 0.83235721 -19.79169203 0.6660526 -15.6875 0.5 C-13.93663086 0.42845703 -13.93663086 0.42845703 -12.15039062 0.35546875 C-10.47299805 0.28779297 -10.47299805 0.28779297 -8.76171875 0.21875 C-7.73006592 0.17685547 -6.69841309 0.13496094 -5.63549805 0.09179688 C-3.75788811 0.02639796 -1.87874855 0 0 0 Z " fill="#131313" transform="translate(110,174)"/>
<path d="M0 0 C3.99432781 1.62061033 6.79558321 4.39339173 9.8125 7.375 C10.5849707 8.09816406 10.5849707 8.09816406 11.37304688 8.8359375 C12.83203125 10.2734375 12.83203125 10.2734375 15 13 C14.82421875 15.3515625 14.82421875 15.3515625 14 17 C10.00567219 15.37938967 7.20441679 12.60660827 4.1875 9.625 C3.67251953 9.14289063 3.15753906 8.66078125 2.62695312 8.1640625 C1.16796875 6.7265625 1.16796875 6.7265625 -1 4 C-0.82421875 1.6484375 -0.82421875 1.6484375 0 0 Z " fill="#202020" transform="translate(92,66)"/>
<path d="M0 0 C3.16854747 0.57691478 4.78226459 1.41646887 7.015625 3.72265625 C7.54414062 4.26083984 8.07265625 4.79902344 8.6171875 5.35351562 C9.15601562 5.91748047 9.69484375 6.48144531 10.25 7.0625 C10.80429688 7.63033203 11.35859375 8.19816406 11.9296875 8.78320312 C13.29334214 10.18212469 14.64760417 11.59019114 16 13 C15.67 13.99 15.34 14.98 15 16 C11.83145253 15.42308522 10.21773541 14.58353113 7.984375 12.27734375 C7.45585938 11.73916016 6.92734375 11.20097656 6.3828125 10.64648438 C5.84398438 10.08251953 5.30515625 9.51855469 4.75 8.9375 C4.19570312 8.36966797 3.64140625 7.80183594 3.0703125 7.21679688 C1.70665786 5.81787531 0.35239583 4.40980886 -1 3 C-0.67 2.01 -0.34 1.02 0 0 Z " fill="#222222" transform="translate(92,58)"/>
<path d="M0 0 C3.13084099 0.57764438 4.77743006 1.40030044 7.015625 3.65234375 C7.54414062 4.18150391 8.07265625 4.71066406 8.6171875 5.25585938 C9.15601562 5.81080078 9.69484375 6.36574219 10.25 6.9375 C10.80429688 7.48857422 11.35859375 8.03964844 11.9296875 8.60742188 C16 12.73287408 16 12.73287408 16 15 C14.20214844 15.67163086 14.20214844 15.67163086 12 16 C10.35253906 14.92016602 10.35253906 14.92016602 8.765625 13.25390625 C8.19199219 12.66416016 7.61835937 12.07441406 7.02734375 11.46679688 C6.44082031 10.83837891 5.85429688 10.20996094 5.25 9.5625 C4.64800781 8.93794922 4.04601562 8.31339844 3.42578125 7.66992188 C1.9390699 6.12421404 0.4680135 4.5634768 -1 3 C-0.67 2.01 -0.34 1.02 0 0 Z " fill="#1F1F1F" transform="translate(78,87)"/>
<path d="M0 0 C6.93 0 13.86 0 21 0 C21 1.32 21 2.64 21 4 C14.07 4 7.14 4 0 4 C0 2.68 0 1.36 0 0 Z " fill="#DDDDDD" transform="translate(77,115)"/>
<path d="M0 0 C6.6 0 13.2 0 20 0 C20 1.32 20 2.64 20 4 C13.4 4 6.8 4 0 4 C0 2.68 0 1.36 0 0 Z " fill="#E7E7E7" transform="translate(93,129)"/>
<path d="M0 0 C2 0 2 0 3.515625 1.50390625 C4.08796875 2.18324219 4.6603125 2.86257812 5.25 3.5625 C5.86488281 4.28566406 6.47976562 5.00882812 7.11328125 5.75390625 C7.73589844 6.49511719 8.35851562 7.23632812 9 8 C10.14473463 9.33427675 11.29046728 10.66769833 12.4375 12 C13.283125 12.99 14.12875 13.98 15 15 C14.67 15.66 14.34 16.32 14 17 C10.00567219 15.37938967 7.20441679 12.60660827 4.1875 9.625 C3.67251953 9.14289063 3.15753906 8.66078125 2.62695312 8.1640625 C1.16796875 6.7265625 1.16796875 6.7265625 -1 4 C-0.82421875 1.6484375 -0.82421875 1.6484375 0 0 Z " fill="#101010" transform="translate(79,78)"/>
<path d="M0 0 C3.96 0 7.92 0 12 0 C12 1.32 12 2.64 12 4 C8.04 4 4.08 4 0 4 C0 2.68 0 1.36 0 0 Z " fill="#E3E3E3" transform="translate(105,144)"/>
<path d="M0 0 C3.96 0 7.92 0 12 0 C12 1.32 12 2.64 12 4 C8.37 4 4.74 4 1 4 C0.67 2.68 0.34 1.36 0 0 Z " fill="#DCDCDC" transform="translate(68,134)"/>
<path d="M0 0 C4.62 0 9.24 0 14 0 C14 0.99 14 1.98 14 3 C9.38 3 4.76 3 0 3 C0 2.01 0 1.02 0 0 Z " fill="#FCFCFC" transform="translate(81,145)"/>
<path d="M0 0 C3.63 0 7.26 0 11 0 C10.34 1.32 9.68 2.64 9 4 C6.03 4 3.06 4 0 4 C0 2.68 0 1.36 0 0 Z " fill="#1C1C1C" transform="translate(145,121)"/>
<path d="M0 0 C3.96 0 7.92 0 12 0 C12 0.99 12 1.98 12 3 C8.37 3 4.74 3 1 3 C0.67 2.01 0.34 1.02 0 0 Z " fill="#F9F9F9" transform="translate(51,120)"/>
</svg>
